<svg xmlns="http://www.w3.org/2000/svg" width="320.031" height="268.063" viewBox="0 0 320.031 268.063">
  <defs>
    <style>
      .cls-1 {
        fill: #fff;
        fill-rule: evenodd;
      }
    </style>
  </defs>
  <path id="heart" class="cls-1" d="M458.016,369.719c-30.406-83.854-131.573-70.587-137.793,24.323-3.419,52.125,43.445,74.41,74.187,97.116,29.809,22.021,50.248,50.96,53.015,62.935,3.635-11.363,29.87-38.373,59.746-56.942,32.666-20.3,82.331-35.689,85.021-87.856C597.105,314.072,496.2,293.129,458.016,369.719Zm149.475-67.29c-13.387-15.225-33.7-4.081-27.148,16.5,3.6,11.3,15.364,12.154,23.753,14.421,8.134,2.2,14.86,6.635,16.438,8.939-0.173-2.7,3.141-10.576,7.925-16.965,5.231-6.986,14.467-14.332,10.712-25.584C632.317,279.2,609.222,283.088,607.491,302.429Z" transform="translate(-320.031 -286.031)"/>
</svg>
