<svg id="6e8902e7-6c1e-49ed-8bc4-e375e859a7a1" data-name="Layer 1" xmlns="http://www.w3.org/2000/svg" viewBox="0 0 269.77 183.97"><defs><style>.\35 b6f2b7b-3496-4521-8bf5-2ea711655b32{fill:#bf0008;opacity:0.4;}.c8039feb-e495-4da1-b6e6-15239e8070f4{fill:#fff;}</style></defs><title>hvd</title><path class="5b6f2b7b-3496-4521-8bf5-2ea711655b32" d="M633.76,310.24a8.79,8.79,0,0,1-5.53-1.3,5.11,5.11,0,0,1-2.36-4,11.26,11.26,0,0,1,.94-4.63,14.07,14.07,0,0,1,6.79-6.56,51,51,0,0,1,9.25-3.51c3.15-.92,5.37-1.58,6.61-2a41.27,41.27,0,0,0,1.65-4.1q-0.29.36-.56,0.67c-1.93,2.22-4,3.4-6.23,3.49-3.7.16-5.12-1.82-5.66-3.35-1.39,1.7-2.74,2.54-4.12,2.6a4.06,4.06,0,0,1-3.62-1.89,4.31,4.31,0,0,1-.49-1c-1.73,2.16-3.38,3.23-5,3.3a3.69,3.69,0,0,1-2.35-.69,5.38,5.38,0,0,1-2.25-4.61c-0.16-3.58,1.21-7.28,4.08-11a12.43,12.43,0,0,1,6.44-4.39,8.42,8.42,0,0,1,2.11-.38,6.68,6.68,0,0,1,5,1.79,2.42,2.42,0,0,1,.77,2.4,1.43,1.43,0,0,1,.48,2.25,17.13,17.13,0,0,0-2.12,3.81,19,19,0,0,0-1.64,4.44c-0.07.42-.12,0.8-0.15,1.15,0.13-.15.28-0.34,0.45-0.57a33.66,33.66,0,0,0,3.46-6.25,2.67,2.67,0,0,1,.19-1.36L641,272c1.39-3,2.55-5.53,3.45-7.58a4,4,0,0,1,3.81-2.39l4.13-.18a1.42,1.42,0,0,1,1.1,2.38,8.34,8.34,0,0,1-.79.7,4.39,4.39,0,0,0-1.37,1.52c-1.48,2.84-3.34,6.92-5.52,12.15a11.16,11.16,0,0,0-1.17,4.12,2.34,2.34,0,0,0,.24,1.19,0.31,0.31,0,0,0,.3.08s0.71-.14,2.41-2.32c2.95-3.77,6.19-9.76,9.66-17.81a4.09,4.09,0,0,1,3.81-2.39l3.65-.16a1.42,1.42,0,0,1,.92,2.54,7.38,7.38,0,0,0-2.22,2.69,38.85,38.85,0,0,0-1.9,4.95c-0.7,2.18-1.58,5.05-2.59,8.55q-0.87,3-1.51,5.14a15.47,15.47,0,0,0,6-5.39,69.88,69.88,0,0,0,3.84-7.46,2.39,2.39,0,0,1,1.9-1.63,1.72,1.72,0,0,1,.82.17,2,2,0,0,1,1.19,1.74c0,0.41,0,.85-1.12,3.29-0.69,1.56-1.4,3-2.13,4.4a27.16,27.16,0,0,1-3,4.32,16.23,16.23,0,0,1-4.29,3.71,48.25,48.25,0,0,1-5.52,2.68c-3.18,6.35-6.53,11.18-9.94,14.33A18,18,0,0,1,633.76,310.24ZM646.35,294a93,93,0,0,0-10.26,3.66,10.67,10.67,0,0,0-5.31,5.21,4.82,4.82,0,0,0-.5,2.12,0.83,0.83,0,0,0,.39.76,2.58,2.58,0,0,0,1.56.34c2.24-.1,4.69-1.44,7.28-4A56.77,56.77,0,0,0,646.35,294Zm-11.8-23.12c-0.57,0-1.86.46-4.1,3.12a25.79,25.79,0,0,0-2.95,4.56c-1.34,2.48-1.59,3.84-1.56,4.54a3,3,0,0,0,.06.49c0.67-.22,2.6-1.49,6-8.64a12.5,12.5,0,0,1,1.7-2.91,3.54,3.54,0,0,1,1.53-1A1.1,1.1,0,0,0,634.54,270.9ZM569.27,287c-6,.26-9.89-1.38-11.54-4.9a7.91,7.91,0,0,1-.68-3,6.14,6.14,0,0,1,1.62-4.07,9.32,9.32,0,0,1,7.21-3.38,17.63,17.63,0,0,1,6,.8A81.43,81.43,0,0,1,581,276.3a43.23,43.23,0,0,0,5-7.29,108.22,108.22,0,0,0,4.94-9.82c1.4-3.21,3.15-6.77,5.19-10.56a65.26,65.26,0,0,1,5.23-8.31,27.21,27.21,0,0,0-12.9-2.62,32.19,32.19,0,0,0-6.35.94c-6.06,1.58-10.66,4.47-13.65,8.6-1.78,2.42-2.64,4.66-2.55,6.66a4.61,4.61,0,0,0,3.81,4.71,9.71,9.71,0,0,0,2.42.27,9.43,9.43,0,0,0,2.3-.44,5.33,5.33,0,0,0,2.23-1.51c1.5-1.64,2.29-3.11,2.33-4.35a1.84,1.84,0,0,1,1.8-1.83,2.6,2.6,0,0,1,.59,0,2.13,2.13,0,0,1,1.72,2.5,10.5,10.5,0,0,1-5.19,8.24,12.29,12.29,0,0,1-5.78,1.82H572l-3.29-.42-0.22,0a10.83,10.83,0,0,1-7.48-6.67,11.11,11.11,0,0,1-.87-3.81,12.7,12.7,0,0,1,2.53-7.83c3.66-5.39,10.42-9.08,20.08-10.94a41.92,41.92,0,0,1,5.66-.64,36.89,36.89,0,0,1,16.49,3.09,26.44,26.44,0,0,1,3.87-3.88,14.47,14.47,0,0,1,1.25-.88,3.35,3.35,0,0,0-.83.16,1.36,1.36,0,0,1-.68.21,1.41,1.41,0,0,1-1.33-2l0.8-1.84a12.78,12.78,0,0,1-3.44.62,9,9,0,0,1-6.4-2.14,7.89,7.89,0,0,1-1.31-1.42,10.73,10.73,0,0,1-1.39,1.14,13.83,13.83,0,0,1-7.17,2.71,8.06,8.06,0,0,1-7-2.52c-3,5.11-5.66,7.56-8.38,7.68a5.38,5.38,0,0,1-4.78-2.51,6.5,6.5,0,0,1-1-2.68c-2.75,3.77-5.34,5.67-7.83,5.78a4.82,4.82,0,0,1-3-.9c-1.87-1.19-2.92-3.33-3-6.31-0.23-5.14,1.76-10.48,5.91-15.88a17.77,17.77,0,0,1,9.19-6.26,11.89,11.89,0,0,1,3-.54,9.24,9.24,0,0,1,6.88,2.48,2.83,2.83,0,0,1,.89,3,2.52,2.52,0,0,1-.24.5h0.05a1.42,1.42,0,0,1,1.26.66l0.08,0.15,0.1-.37c0.69-2.58.84-3.19,0.87-3.33a140.33,140.33,0,0,1,5.76-18.42,137.55,137.55,0,0,1,6.55-15.08,42.9,42.9,0,0,1,4.48-7.14c2.39-2.77,4.91-4.23,7.48-4.34,1.55-.07,3.61.6,4.63,4.15l0,0.1c0,0.13.05,0.26,0.07,0.4,0.12-.77.3-1.62,0.53-2.57q0.59-2.4.92-3.65c0.22-.84.56-2,1-3.42l0.13-.4c-3,0-8.66.07-17.21,0.07a55.84,55.84,0,0,1-10.54,19.4,36.63,36.63,0,0,1-8.9,7.77,31.15,31.15,0,0,1-10.4,4.08q0.09,0.66.12,1.36a26.14,26.14,0,0,1-1.27,8.38,73.72,73.72,0,0,1-11,20.73,75.6,75.6,0,0,1-15.22,15.91c-5.25,3.89-9.53,5.85-13.09,6a8.29,8.29,0,0,1-1.79-.12c-2.3-.32-5.15-2-5.42-8.15-0.31-7,2.55-18.59,8.76-35.45a98,98,0,0,0,5-17.93,25.4,25.4,0,0,0,.48-5.12,22.2,22.2,0,0,0-.28-3c-0.32-2-1-3.27-2.22-3.92a17.73,17.73,0,0,0-8.56-1.64,26.51,26.51,0,0,0-10.58,3A60.53,60.53,0,0,0,500,175.54a49.6,49.6,0,0,0-8.84,9.16,36.59,36.59,0,0,0-5.67,10.8,29,29,0,0,0-1.58,9.92,18,18,0,0,0,.45,3.34,13,13,0,0,0,4.74,7.42,12.1,12.1,0,0,0,7.8,2.16c4.19-.19,8.13-2.27,11.69-6.19s5.29-8,5.1-12.16c-0.09-2.09-.53-3.56-1.31-4.35a2.89,2.89,0,0,0-2-1.09,9.83,9.83,0,0,0-2.71.52,5.49,5.49,0,0,1-1.49.33,2,2,0,0,1-1.11-.24,1.66,1.66,0,0,1-.83-1.38c-0.06-1.33,1.31-2.15,2.6-2.81a10.86,10.86,0,0,1,4.49-1.19,7.8,7.8,0,0,1,4.67,1.29c2.62,1.84,4,4.67,4.18,8.47a18.14,18.14,0,0,1-3.62,11.11,31.16,31.16,0,0,1-9.48,9,24.3,24.3,0,0,1-11.6,3.78,16.82,16.82,0,0,1-11.26-3.84A20.83,20.83,0,0,1,477,208.35a22.09,22.09,0,0,1-.65-4.49,30.92,30.92,0,0,1,2.14-11.93,40.36,40.36,0,0,1,7.11-12.05,52.34,52.34,0,0,1,10.3-9.43A65.82,65.82,0,0,1,507.71,164a34.61,34.61,0,0,1,12.14-3,29.49,29.49,0,0,1,10.62,1.35,13.88,13.88,0,0,1,8.66,9.6,21.85,21.85,0,0,1,.49-4.77,12.47,12.47,0,0,1,3.32-5.95c1.84-1.94,3.44-2.94,4.88-3.06h0a2.25,2.25,0,0,1,1.88.58,1.66,1.66,0,0,1-.08,2.26,2.91,2.91,0,0,1-1,.69,8.6,8.6,0,0,0-2.94,3,11.86,11.86,0,0,0-1.91,7.3c0.19,4.22,2.33,7.21,6.55,9.13a16.66,16.66,0,0,0,2.44.86,2.69,2.69,0,0,1-.72-1.23,2.2,2.2,0,0,1,.21-1.8,2.44,2.44,0,0,1,1.69-1.07l0.21,0h0.15l1.57,0.09,0.24,0a12.51,12.51,0,0,1,6.6,4.28c0.36-.07.72-0.16,1.07-0.25,12-3.25,20.54-11.32,25.39-24l-0.09,0a6.19,6.19,0,0,1-2.47.93,1.84,1.84,0,0,1-2-1.46,1.39,1.39,0,0,1,0-.23v0a11.14,11.14,0,0,1-5.12,4.34,11.35,11.35,0,0,1-3.79.85,9.85,9.85,0,0,1-3.93-.66,10.26,10.26,0,0,1-5.61-5.12,10,10,0,0,1-1.27-4.29,18.71,18.71,0,0,1,.41-4.44,15.6,15.6,0,0,1,2.22-5.25,14.55,14.55,0,0,1,4.43-4.46,35.42,35.42,0,0,1,5.1-2.74,29,29,0,0,1,6.17-1.78c2.29-.42,4.3-0.75,6-1s3.76-.47,6.14-0.69c1.91-.18,3.43-0.34,4.53-0.49a27.75,27.75,0,0,1,1.63-2.4,6.49,6.49,0,0,1,2.9-2.5,7.15,7.15,0,0,1,1.86-.4c2.67-.12,3.69,1.54,3.76,3.13,0.05,1.25-.42,3.05-3,4.53a12.27,12.27,0,0,1-4.27,1.55c-0.92,2.16-2.16,5.63-3.68,10.35-0.73,2.28-1.56,4.85-2.12,6.59,2.66-.06,5.88,0,9.6.06s6.15,0.15,7.59.14c0.73-2.3,1.87-5.39,3.38-9.19a71.82,71.82,0,0,1,4.77-10.17c1.54-2.56,3.07-4.11,4.64-4.75a9.71,9.71,0,0,1,3.06-.9c2-.09,2.16,1.13,2.17,1.5a2.23,2.23,0,0,1-1.48,1.9,12.1,12.1,0,0,0-2,2.75,77.82,77.82,0,0,0-4.28,8.44,90.27,90.27,0,0,0-3.82,10.06,8.56,8.56,0,0,0,2.11-.33,4.08,4.08,0,0,1,1.37-.36,1.76,1.76,0,0,1,1.38.52,1.61,1.61,0,0,1,.44,1.23,2.47,2.47,0,0,1-1.14,1.68,11.65,11.65,0,0,1-5.46,2l-0.56,2c-1.67,6.06-2.46,10.31-2.36,12.61a3.13,3.13,0,0,0,.47,2,1,1,0,0,0,.54.34,2,2,0,0,0,1-.5c1.68-1.36,3.54-4.16,5.52-8.31a9.11,9.11,0,0,1-.15-1.32c-0.17-3.85,1.31-7.85,4.41-11.88a13.4,13.4,0,0,1,6.93-4.72,9,9,0,0,1,2.26-.41,7.14,7.14,0,0,1,5.31,1.91,2.45,2.45,0,0,1,.77,2.59,1.41,1.41,0,0,1,.7.56,1.51,1.51,0,0,1,.23.71,24.61,24.61,0,0,1,3.22-.55h0.13a2.17,2.17,0,0,1,2.12,1.42,5.21,5.21,0,0,1,.29,1.53q0,0.59,0,1.21l0.34-.41c0.66-.75,1.37-1.51,2.14-2.31a6.5,6.5,0,0,1,4.34-2.31,4.79,4.79,0,0,1,1.32.12c1.88,0.4,4.2,1.78,4.39,6a16.68,16.68,0,0,1-1.25,6.63,28,28,0,0,1-3.84,6.83,14.11,14.11,0,0,1-6.56,4.89,13.47,13.47,0,0,1-3.53.59,8.69,8.69,0,0,1-3.13-.49l-4.74,13.51a8.44,8.44,0,0,1-2,3.29,4,4,0,0,1-2.37,1l-0.9,0a7.76,7.76,0,0,1-1.39-.15,5,5,0,0,0-.91-0.07l-0.18,0a1.48,1.48,0,0,1-1.36-.75,1.4,1.4,0,0,1,.18-1.64c0.34-.36,1.62-2.26,6.08-12.24,2-4.5,3.49-8.1,4.41-10.78a4.69,4.69,0,0,1-2.6,1,4.3,4.3,0,0,1-3.83-2,4.7,4.7,0,0,1-.59-1.28c-1.91,2.44-3.71,3.64-5.53,3.72a3.87,3.87,0,0,1-2.18-.54c-0.52,1.09-1,2-1.44,2.72a27.56,27.56,0,0,1-3.29,4.42,8.6,8.6,0,0,1-5.76,3,5.26,5.26,0,0,1-5.23-2.85,5.83,5.83,0,0,1-.78-2.54c0-.32,0-0.65,0-1a32.39,32.39,0,0,1-1.71,5.27c-5.1,12.8-11.49,23.15-19,30.77-0.1.39-.3,1.1-0.69,2.44-0.45,1.52-.82,3-1.11,4.41a15.76,15.76,0,0,0-.33,3.93,6.74,6.74,0,0,0,1,3.25,1.94,1.94,0,0,0,2,1c1.73-.08,3.47-1.37,5.17-3.83,0,0,0-.06,0-0.08a20.64,20.64,0,0,1,1.44-8.12,30.2,30.2,0,0,1,4.47-7.94,19.09,19.09,0,0,1,7-5.68,10.08,10.08,0,0,1,4-1.07,6.83,6.83,0,0,1,3.89,1l0.12,0.08a4.5,4.5,0,0,1,2,3.44c0.16,3.59-1.78,7.09-5.75,10.41a18,18,0,0,1-5.15,2.84,22.19,22.19,0,0,1-4.18,1.25,14.68,14.68,0,0,0-.49,4.64,4.32,4.32,0,0,0,.81,2.6,1.85,1.85,0,0,0,1.69.66c2.25-.1,4.4-1.48,6.41-4.1,3.77-8.73,5.12-10.75,5.86-11.53a4.13,4.13,0,0,1,3-1.27,9.46,9.46,0,0,1,1.53.14,4.57,4.57,0,0,0,.79.05h0.14l0.28,0a1.44,1.44,0,0,1,1.4.87,1.39,1.39,0,0,1-.55,1.75,6.55,6.55,0,0,0-1.68,2,35.15,35.15,0,0,1,3.83-2.66,15.72,15.72,0,0,1,4.81-2.16,2.75,2.75,0,0,1,.09-1.86,2.09,2.09,0,0,1,1.86-1.38l4.14-.18c1.71-4.18,3.34-7.75,4.87-10.64,1.71-3.26,3.32-5.44,4.91-6.68s2.91-2,3.9-2a5.24,5.24,0,0,1,1.92.18c1.37,0.58,2.92,1.88,3.05,5a18.38,18.38,0,0,1-1.73,7.72c-0.84,2-1.68,3.94-2.5,5.76l1.72-.08h0.24a4.44,4.44,0,0,1,1.22-1.86,4.28,4.28,0,0,1,2.8-1.21A3.58,3.58,0,0,1,660,200.9a3.47,3.47,0,0,1,.93,2.94,4.4,4.4,0,0,1-1.41,2.7,4.32,4.32,0,0,1-2.41,1.18,2.13,2.13,0,0,1,1.25,1,3.31,3.31,0,0,1-.25,2.89l-4.43,11.77a8.54,8.54,0,0,0-.79,3.4,0.88,0.88,0,0,0,.06.33h0a1.61,1.61,0,0,0,.46,0,2.57,2.57,0,0,0,1.49-.87c3.87-8.73,5.3-10.79,6-11.57a4.77,4.77,0,0,1,3.44-1.47,11.31,11.31,0,0,1,1.83.17,6,6,0,0,0,1,.07,1.18,1.18,0,0,0,.25,0,1.42,1.42,0,0,1,1.13,2.58c-0.52.31-1.5,1.32-3.23,4.34a40.48,40.48,0,0,1,6.21-4.56c3-1.79,5-2.65,6.59-2.72a3.66,3.66,0,0,1,1.37.19,1.42,1.42,0,0,1,.79,2c-7,13.67-8.36,19.07-8.27,21.2a2.17,2.17,0,0,0,.08.56c0.89-.11,3.58-1.47,8.6-12.8a3.87,3.87,0,0,1,.42-0.83,24.28,24.28,0,0,1,1.43-5.77,32.23,32.23,0,0,1,4.76-8.46,20.34,20.34,0,0,1,7.4-6A10.7,10.7,0,0,1,699,202a7.2,7.2,0,0,1,4.1,1.06l0.12,0.08a4.72,4.72,0,0,1,2.1,3.6c0.17,3.8-1.89,7.51-6.11,11a19.16,19.16,0,0,1-5.47,3,23.28,23.28,0,0,1-4.5,1.34,15.79,15.79,0,0,0-.54,5,4.69,4.69,0,0,0,.88,2.83,2.1,2.1,0,0,0,1.88.74c4.44-.2,8.45-4.91,11.92-14,0.66-1.72,1.7-2.12,2.45-2.16a2.38,2.38,0,0,1,.46,0,1.82,1.82,0,0,1,1.55,1.74c0,0.39,0,.65-1.79,5.08a37.12,37.12,0,0,1-3.67,7c-2.91,4.38-6.75,6.73-11.39,6.93a9.48,9.48,0,0,1-6.77-2.26,8.37,8.37,0,0,1-1.94-2.37,38.43,38.43,0,0,1-4.32,7.14c-2,2.45-4.2,3.75-6.46,3.85a6.24,6.24,0,0,1-5.52-2.52,5.67,5.67,0,0,1-1.16-3.46,15.53,15.53,0,0,1,.63-4.61,41.76,41.76,0,0,1,4-8.45c0.14-.26.25-0.47,0.33-0.66a19.52,19.52,0,0,0-3.47,3c-3.39,3.39-6.63,8.49-9.65,15.15l0,0.09a3.38,3.38,0,0,1-1.73,1.65,10.05,10.05,0,0,1-2.61.45,5.32,5.32,0,0,0-1.58.28,1.39,1.39,0,0,1-.69.22,1.42,1.42,0,0,1-1.35-2c0.72-1.63,2.13-4.92,4.08-9.54a5,5,0,0,1-4.12-1.76l-0.1-.13-0.33.57c-3,5.42-6.58,8.27-10.51,8.44a6.83,6.83,0,0,1-5.47-2.18,8.59,8.59,0,0,1-2.29-5.72c0-.5,0-1,0-1.59A6.53,6.53,0,0,1,626,230.7a5.32,5.32,0,0,1-4.71-2.15,4.86,4.86,0,0,1-1-3,13,13,0,0,1,.51-3.82,31.92,31.92,0,0,1,3-6.41c-0.45.38-1,.93-1.84,1.74-2.73,2.73-5.34,6.84-7.78,12.22a4.1,4.1,0,0,1-.69,1,1.87,1.87,0,0,1,1.52,1,1.78,1.78,0,0,1-.24,2,2,2,0,0,1-1.38.63,5.63,5.63,0,0,0-1.56,1.77c-0.73,1.06-1.36,2.08-1.89,3A31,31,0,0,1,620,249.55a28.2,28.2,0,0,1,3.55,12.7c0.25,5.75-1,10.49-3.6,14.08a18.89,18.89,0,0,1-8.15,6.41,33.64,33.64,0,0,1-11.2,2.53A38.38,38.38,0,0,1,582.15,282,21.47,21.47,0,0,1,569.27,287Zm-2.76-10.52a2.16,2.16,0,0,0-1.81.93A2.84,2.84,0,0,0,564,279a3.18,3.18,0,0,0,.42,1.45c0.26,0.48,1,1.88,4.23,1.74a17.09,17.09,0,0,0,8.24-2.54c-3.59-1.5-5.93-2.43-7-2.75A10,10,0,0,0,566.51,276.45Zm19.29,2.21a28.24,28.24,0,0,0,12.6,2.11c6.21-.27,11.13-2.27,14.62-5.92,2.75-2.92,4-6.81,3.76-11.86a25.17,25.17,0,0,0-2.59-10.2,26.28,26.28,0,0,0-7.14-9c-1.21,2.14-3.09,5.54-5.69,10.29-3.21,5.89-6,10.72-8.19,14.37a66.68,66.68,0,0,1-5.45,8Q586.68,277.72,585.81,278.66Zm51.5-49a8.23,8.23,0,0,0-.14,1.84,3.12,3.12,0,0,0,.49,1.45,0.56,0.56,0,0,0,.62.32,5.16,5.16,0,0,0,2.38-.89c2.31-1.94,4.86-5.92,7.58-11.84l3.17-9.26h0a3.24,3.24,0,0,0,0-.48h0a3,3,0,0,0-.5-0.75,1.42,1.42,0,0,1,1-2.31l3.34-.21a3.37,3.37,0,0,1-1-.55,2,2,0,0,1-1.33.57l-4.08.18a62.83,62.83,0,0,1-10.12,13.68Zm-97.25-51.76c0.25,5.67-1.48,12.83-5.13,21.28a128.4,128.4,0,0,0-5.79,16.39c-2.42,8.54-3.57,14.49-3.43,17.66,0.1,2.37.87,2.33,1.24,2.32,1.68-.07,6-1.93,16.26-13.54a72.45,72.45,0,0,0,12.91-20.61,30.33,30.33,0,0,0,2.62-12.19,36.57,36.57,0,0,1-4.77-.61,21.3,21.3,0,0,1-8-3.41,15.45,15.45,0,0,1-5.75-7.45l-0.17-.48C540,177.46,540,177.67,540.06,177.89Zm39.77,35.28a29.5,29.5,0,0,0-3.1,5.64,30,30,0,0,0-2.49,6.76,18.8,18.8,0,0,0-.3,3.41,7,7,0,0,0,2-2,42.68,42.68,0,0,0,3.47-5.73c0-.16,0-0.31,0-0.46,0-.82,0-1.84,0-3.15A31.47,31.47,0,0,1,579.82,213.18Zm-6.93-4c-1.16.05-3.25,0.94-6.58,4.86a39.06,39.06,0,0,0-4.46,6.88c-1.66,3.06-2.45,5.43-2.38,7.08a2.33,2.33,0,0,0,.34,1.43,0.43,0.43,0,0,0,.15,0c1.07,0,4.17-1.44,9.76-13.27a17.91,17.91,0,0,1,2.41-4.16,4.62,4.62,0,0,1,2.91-1.54A2,2,0,0,0,572.89,209.22Zm60.66-.81a1.42,1.42,0,0,1-.16.66c-5.66,11-6.76,15.38-6.69,17.07,0,0.05,0,.1,0,0.15,0.61-.23,2.12-1.31,4.68-6.29,0.84-3.33,2-7.24,3.58-11.65Zm66.64-1.77c-0.51.09-2.13,0.78-5.7,5.52a40.22,40.22,0,0,0-3.2,5.12l0.95-.38a14.56,14.56,0,0,0,4.2-2.63c2.65-2.47,3.89-4.89,3.78-7.38A2,2,0,0,0,700.2,206.64Zm-57.66,3q0.53-.84,1.05-1.71l-0.44,0Zm-37.48,1.5,0.57-.23a13.58,13.58,0,0,0,3.91-2.44c2.46-2.3,3.61-4.54,3.51-6.84,0,0,0-.09,0-0.12-0.56.16-2.08,1-5.19,5.1a37.09,37.09,0,0,0-2.61,4.08Zm41.15-8c3.22-6.51,4.22-10,4.4-11.81-0.21.28-.45,0.63-0.73,1.06A80.28,80.28,0,0,0,645,203.22Zm-41-32.58a29.82,29.82,0,0,0-1.75,2.49c-1.68,2.6-3.94,7.36-6.73,14.15q-2.08,5.07-3.79,9.54,1.91-2.82,3.78-6.09a95.28,95.28,0,0,0,6.59-13.42A27.35,27.35,0,0,0,605.25,170.58Zm40.68,1.62h0.28c0.21,0,1.06-.18,3-2a27.91,27.91,0,0,0,6.22-8.47,10.8,10.8,0,0,0,1.41-4.84,2.74,2.74,0,0,0-.32-1.2v0c-0.43,0-1.66.41-3.74,3.6A133.87,133.87,0,0,0,645.93,172.2Zm-7.33-21.27c-0.64,0-2.07.51-4.54,3.43a28.26,28.26,0,0,0-3.22,5c-1.47,2.72-1.74,4.22-1.7,5a2.83,2.83,0,0,0,.1.67c0.75-.15,2.87-1.39,6.69-9.48a13.41,13.41,0,0,1,1.83-3.14,3.71,3.71,0,0,1,1.82-1.14A1.11,1.11,0,0,0,638.59,150.93Zm4.21,4.63c-0.3.57-.66,1.28-1.08,2.18a20.74,20.74,0,0,0-1.79,4.85c-0.1.61-.16,1.15-0.2,1.62a9.14,9.14,0,0,0,.73-0.89,29.64,29.64,0,0,0,2.2-3.55,10,10,0,0,0,.34-2.89A4.58,4.58,0,0,0,642.8,155.56Zm-47-19.17q-2.83.36-4.6,0.62c-1.15.17-2.59,0.43-4.3,0.78a27.62,27.62,0,0,0-4.09,1.11,31.21,31.21,0,0,0-3.6,1.67,13.15,13.15,0,0,0-3.11,2.23,16.52,16.52,0,0,0-4.11,7.43,12.15,12.15,0,0,0-.37,3.66,5.37,5.37,0,0,0,1.4,3.25,3.5,3.5,0,0,0,3,1.34c2.78-.12,4.58-1.76,5.66-5.17a11.77,11.77,0,0,0,.78-3.39,1.69,1.69,0,0,0-.18-0.87,1.85,1.85,0,0,1-.36-1.78,1.78,1.78,0,0,1,1.33-1.13,2.3,2.3,0,0,1,.36-0.05,2.11,2.11,0,0,1,1.92,1.13l0.05,0.09a9.3,9.3,0,0,1,1,3.89,8.42,8.42,0,0,1-.6,3.36q0.24-.2.52-0.4a7.36,7.36,0,0,1,3.05-1.4l0.16,0,1.37-.06c1.92-5.42,4.11-11,6.53-16.53ZM724.07,232.2c-5.88.26-8.1-2.8-8.93-5.42a13.39,13.39,0,0,1-.44-3,6.44,6.44,0,0,1,1.17-3.91,5.06,5.06,0,0,1,2.36-2c2.49-5.32,4.65-10.2,6.42-14.52,2.28-5.45,5.25-8.29,8.83-8.45a6.77,6.77,0,0,1,3,.56c2.31,1,1.8,2.68,1.67,3a2,2,0,0,1-1.85,1.35,2.9,2.9,0,0,1-1.22-.24,2.66,2.66,0,0,0-1-.25,1.25,1.25,0,0,0-.55.13c-0.53.28-2.06,1.08-1.9,4.69a8.35,8.35,0,0,0,.71,3.31q0.74,1.49,1.66,3.21a20.16,20.16,0,0,1,2.44,7.74,11.4,11.4,0,0,1-1.74,6.39q-0.48.81-1,1.54a12.15,12.15,0,0,0,2.69-2.7c1-1.42,3-5.15,5.7-11.09a2,2,0,0,1,1.74-1.32l0.24,0a1.93,1.93,0,0,1,2.11,1.93,3.79,3.79,0,0,1-.45,1.61q-0.33.79-.63,1.59c-0.22.58-.55,1.39-1,2.47s-0.89,1.94-1.25,2.61-0.78,1.44-1.32,2.38a11.5,11.5,0,0,1-1.8,2.47l-1.67,1.91a9.54,9.54,0,0,1-3.9,2.59,12.3,12.3,0,0,1-3.76.78,11.41,11.41,0,0,1-2.65-.19A9.74,9.74,0,0,1,724.07,232.2Zm-1.43-13.91a4,4,0,0,1,1.35,3.22c0.1,2.36.83,4,2.21,4.88,1.6-1.75,2.3-4.29,2.15-7.71a59,59,0,0,0-.89-7q-0.29-1.65-.48-2.92C725,213.16,723.54,216.35,722.64,218.29Zm-12.39-8.36a1.67,1.67,0,0,1-1.72-1.73,2.06,2.06,0,0,1,1.45-2,7.85,7.85,0,0,0,3.26-2.27,5.92,5.92,0,0,0,.72-1.05h0a3.89,3.89,0,0,1-3.14-1.29,4,4,0,0,1-1-3.33,4.64,4.64,0,0,1,1.62-3.14,5.25,5.25,0,0,1,3.37-1.39,3.92,3.92,0,0,1,3.48,1.71,6.59,6.59,0,0,1,1.2,3.64,8.9,8.9,0,0,1-2.47,6.76,15.27,15.27,0,0,1-5.69,3.8A2.51,2.51,0,0,1,710.24,209.93ZM674.61,198a8.13,8.13,0,0,1-5.12-1.21,4.78,4.78,0,0,1-2.2-3.78,10.38,10.38,0,0,1,.87-4.27,13,13,0,0,1,6.25-6,46.87,46.87,0,0,1,8.46-3.21c2.85-.83,4.85-1.43,6-1.79q0.59-1.24,1.23-3l-0.06.07a8.23,8.23,0,0,1-5.77,3.23c-3.74.17-5-2-5.4-3.49a3.57,3.57,0,0,1-.27-2q0.08-.82.1-1.17a5.29,5.29,0,0,1,.44-1.67q0.3-.77.4-1.1a1,1,0,0,1,.06-0.16c0.19-.44.36-0.84,0.53-1.19a2.16,2.16,0,0,1-.07-2l1-2.29c1.27-2.71,2.33-5,3.14-6.91a3.78,3.78,0,0,1,3.59-2.25l3.76-.17a1.42,1.42,0,0,1,1.12,2.36,7.38,7.38,0,0,1-.75.67A3.91,3.91,0,0,0,690.7,158c-1.36,2.6-3,6.32-5,11.07a10.09,10.09,0,0,0-1.06,3.71,2.21,2.21,0,0,0,.19,1,0.21,0.21,0,0,0,.17,0s0.62-.16,2.1-2.07c2.68-3.44,5.64-8.89,8.79-16.22a3.85,3.85,0,0,1,3.59-2.26l3.33-.15a1.42,1.42,0,0,1,.92,2.54,6.63,6.63,0,0,0-2,2.41,35.25,35.25,0,0,0-1.72,4.5c-0.63,1.94-1.42,4.56-2.36,7.79q-0.74,2.53-1.3,4.41a13.89,13.89,0,0,0,5.18-4.74,63.78,63.78,0,0,0,3.5-6.79,2.29,2.29,0,0,1,1.84-1.56,1.68,1.68,0,0,1,.81.17,2,2,0,0,1,1.15,1.69c0,0.4,0,.8-1,3.05-0.63,1.44-1.29,2.79-1.95,4a25,25,0,0,1-2.71,4,15,15,0,0,1-3.95,3.42,44,44,0,0,1-5,2.44c-2.91,5.79-6,10.19-9.07,13.07A16.53,16.53,0,0,1,674.61,198Zm11.16-14.69a81.12,81.12,0,0,0-9,3.23,9.62,9.62,0,0,0-4.79,4.69,4.29,4.29,0,0,0-.44,1.88,0.62,0.62,0,0,0,.3.6,2.25,2.25,0,0,0,1.35.29c2-.09,4.22-1.3,6.56-3.6A51.58,51.58,0,0,0,685.77,183.35Zm-26.39-1a6.86,6.86,0,0,1-1.25-.13,4.24,4.24,0,0,0-.77-0.06l-0.17,0a1.46,1.46,0,0,1-1.35-.75,1.4,1.4,0,0,1,.2-1.64c0.29-.3,1.39-1.94,5.27-10.64a105.48,105.48,0,0,0,4.22-10.53,1.52,1.52,0,0,1-.43-0.43,2,2,0,0,1,0-2c0.17-.37.49-1.16,0.93-2.35a9.87,9.87,0,0,0,.7-3.78,3.76,3.76,0,0,0-.17-1.11,1.42,1.42,0,0,1,.43-2.6,30.43,30.43,0,0,1,3.93-.71h0.13a2.06,2.06,0,0,1,2,1.37,4.67,4.67,0,0,1,.26,1.38c0,0.19,0,.37,0,0.56q0.87-1,1.86-2a5.84,5.84,0,0,1,3.91-2.08,4.4,4.4,0,0,1,1.2.11c1.39,0.3,3.8,1.4,4,5.41a14.78,14.78,0,0,1-1.1,5.86,24.69,24.69,0,0,1-3.38,6,12.49,12.49,0,0,1-5.81,4.33,11.87,11.87,0,0,1-3.13.53,7.65,7.65,0,0,1-2.63-.38l-4.08,11.64a7.6,7.6,0,0,1-1.84,3,3.62,3.62,0,0,1-2.18.93Zm19.27-33.09c-0.4.09-1.39,0.58-3,3a114.61,114.61,0,0,0-5.89,11,6.08,6.08,0,0,0,2.48-1.67,24.24,24.24,0,0,0,5.4-7.35,9.28,9.28,0,0,0,1.21-4.14A2.25,2.25,0,0,0,678.65,149.28Z" transform="translate(-476.32 -126.28)"/><path class="c8039feb-e495-4da1-b6e6-15239e8070f4" d="M621.68,144a70.25,70.25,0,0,1,5.09-9.74q2.2-3.31,4.14-4a10,10,0,0,1,2.62-.69c0.46,0,.69.06,0.69,0.18a1.4,1.4,0,0,1-.78.57,11.3,11.3,0,0,0-2.65,3.13,78.69,78.69,0,0,0-4.74,8.4,92.38,92.38,0,0,0-5,12,17.69,17.69,0,0,0,4.62-.36,1.3,1.3,0,0,1,1.19-.12q0.21,0.24-.57.77a11.38,11.38,0,0,1-5.78,1.61q-0.06.12-1,2.86-3,9.24-3,12.93a4.41,4.41,0,0,0,.75,2.92,2.13,2.13,0,0,0,1.58.83,3.3,3.3,0,0,0,1.85-.72q3.4-2.5,7.45-10.79,0.48-1,.92-0.83t0,1.25a57.94,57.94,0,0,1-3.67,6.91,26,26,0,0,1-3.31,4.05,7.19,7.19,0,0,1-4.89,2.32,3.86,3.86,0,0,1-3.81-2.27,4.46,4.46,0,0,1-.54-2c0-.6,0-1.22,0-1.88s0.09-1.51.21-2.56a24.33,24.33,0,0,1,.86-3.93q0.68-2.35,1.07-3.58t1.16-3.31q0.77-2.09.83-2.26-2.56,0-20.2-.78a54.14,54.14,0,0,1-11.44,19.43,35.1,35.1,0,0,1-8.88,7.09,29.14,29.14,0,0,1-14.3,3.75,30.57,30.57,0,0,1-7-.92,19.81,19.81,0,0,1-7.33-3.52,14,14,0,0,1-4.92-7,17.15,17.15,0,0,1-.09-9.77,11,11,0,0,1,3.19-5.12q2.47-2.38,4.08-2.44a1,1,0,0,1,.72.15,0.26,0.26,0,0,1-.09.36,1.49,1.49,0,0,1-.51.33,9.83,9.83,0,0,0-3.7,3.4,13.35,13.35,0,0,0-2.5,8q0,7.15,6.91,10.67a21.6,21.6,0,0,0,9.77,2.09,21.13,21.13,0,0,0,4.59-.48q20.2-4.53,28.43-26.16a7,7,0,0,0-3,.69,6.26,6.26,0,0,1-1.91.69,0.44,0.44,0,0,1-.51-0.36,2.5,2.5,0,0,1,1.43-1.94,6.07,6.07,0,0,1,2.5-1h2.33q3.81-9.53,8.7-19.31-1.55.18-4.41,0.42t-4.65.42q-1.79.18-4.41,0.6a28.93,28.93,0,0,0-4.35,1,32.59,32.59,0,0,0-3.84,1.58,14.48,14.48,0,0,0-3.55,2.32,17.87,17.87,0,0,0-4.83,7.87,13.51,13.51,0,0,0-.6,4.05,6.8,6.8,0,0,0,1.55,4.17,4.92,4.92,0,0,0,4.11,2q5.06,0,7.21-5.84a13.42,13.42,0,0,0,1-3.84,3,3,0,0,0-.39-1.67c-0.26-.38-0.19-0.6.21-0.69a0.72,0.72,0,0,1,.72.48,7.42,7.42,0,0,1-.48,7.21,10.18,10.18,0,0,1-5.48,4.95,9.87,9.87,0,0,1-3.34.6,8.4,8.4,0,0,1-3.34-.72,8.85,8.85,0,0,1-4.65-4.65,8.6,8.6,0,0,1-1-3.75,17.24,17.24,0,0,1,.57-4.08,14.13,14.13,0,0,1,2.23-4.68,13.09,13.09,0,0,1,4.17-3.84,34,34,0,0,1,5-2.41,27.43,27.43,0,0,1,5.93-1.43q3.43-.48,6-0.71t6.11-.42q3.58-.18,5.3-0.36a22.25,22.25,0,0,1,2-2.77,5.42,5.42,0,0,1,2.29-1.91,5.91,5.91,0,0,1,1.49-.27q2.2,0,2.21,1.88t-2.44,3.13a10.13,10.13,0,0,1-4.59,1.25,112.34,112.34,0,0,0-4.56,11.06q-2.95,8-3.13,8.37,4.47,0,11.53.51t8.67,0.51Q618.79,150.44,621.68,144Zm-12.55-15q-0.71,0-3,2.92,3.87-.6,3.81-2.09a0.78,0.78,0,0,0-.65-0.77A0.25,0.25,0,0,0,609.14,129Z" transform="translate(-476.32 -126.28)"/><path class="c8039feb-e495-4da1-b6e6-15239e8070f4" d="M642.66,158.11a22.71,22.71,0,0,0-2.14,5.14,14.22,14.22,0,0,0-.35,2.76q0,1.05.81,1.05,1,0,2.54-1.89A38.44,38.44,0,0,0,647.9,158a0.81,0.81,0,0,1,.49-0.54c0.29-.11.43,0,0.43,0.32a1.71,1.71,0,0,1-.16.65q-5,10.06-8.38,10.06a2.92,2.92,0,0,1-2.54-1.51,4.19,4.19,0,0,1-.49-2.16,12.71,12.71,0,0,1,.54-3.3q-4.33,7-7.46,7a2.5,2.5,0,0,1-1.57-.54,4.42,4.42,0,0,1-1.62-3.89q0-5.3,4.59-10.76a11.94,11.94,0,0,1,6.38-3.95,7.66,7.66,0,0,1,1.95-.27,5.74,5.74,0,0,1,4.22,1.73,1.06,1.06,0,0,1,.33,1.14,0.75,0.75,0,0,1-.92.43,2.49,2.49,0,0,0-2.59-1.95q-2.33,0-5.73,3.68a29.58,29.58,0,0,0-3.62,5.08q-2.11,3.52-2.11,5.62t1.35,2.11q3.24,0,8.49-9.95a12.43,12.43,0,0,1,1.73-2.73,2.37,2.37,0,0,1,1.78-.73,9.1,9.1,0,0,1,1.11.16,3.39,3.39,0,0,0,1.32.05A20.78,20.78,0,0,0,642.66,158.11Z" transform="translate(-476.32 -126.28)"/><path class="c8039feb-e495-4da1-b6e6-15239e8070f4" d="M663.48,159.23a15.23,15.23,0,0,1-1.42,6,26.46,26.46,0,0,1-3.93,6.31,12.66,12.66,0,0,1-6.1,4.15,11.94,11.94,0,0,1-3.13.37,8.37,8.37,0,0,1-3.87-1.11l-5.88,14.67a7.28,7.28,0,0,1-1.73,2.6,2.57,2.57,0,0,1-1.55.62H635a11,11,0,0,1-1.11-.19,5,5,0,0,0-1.45-.12q1.36-1.3,6.9-12.35t6.28-14.89a2.06,2.06,0,0,1-1.3,1.05q-0.37,0,0-.71t1.24-2.75a12.82,12.82,0,0,0,1.11-4.92q0-2.26-.87-2.63a36.86,36.86,0,0,1,4.33-.59,0.76,0.76,0,0,1,.77.53,3.75,3.75,0,0,1,.15,1.11,24.31,24.31,0,0,1-1.73,8.42l1.24-2a32.65,32.65,0,0,1,3.25-4.64q1-1.05,2.2-2.17a5.16,5.16,0,0,1,3.47-1.73,3.38,3.38,0,0,1,.93.12Q663.48,155.2,663.48,159.23Zm-3-.62a4.18,4.18,0,0,0-.4-1.83,1.33,1.33,0,0,0-1.27-.84q-2.16,0-5,4A145,145,0,0,0,645.53,174a3,3,0,0,0,2.23.8q1.42,0,4-2.17a29.19,29.19,0,0,0,6.93-8.6A12.36,12.36,0,0,0,660.51,158.61Z" transform="translate(-476.32 -126.28)"/><path class="c8039feb-e495-4da1-b6e6-15239e8070f4" d="M685.37,153.38a13.32,13.32,0,0,1-1.24,5.24,23.14,23.14,0,0,1-3.43,5.51,11,11,0,0,1-5.32,3.62,10.42,10.42,0,0,1-2.73.32,7.31,7.31,0,0,1-3.38-1l-5.14,12.81a6.4,6.4,0,0,1-1.51,2.27,2.25,2.25,0,0,1-1.35.54h-0.79a9.78,9.78,0,0,1-1-.16,4.39,4.39,0,0,0-1.27-.11q1.19-1.13,6-10.79t5.49-13a1.8,1.8,0,0,1-1.14.92q-0.33,0,0-.62t1.08-2.41a11.21,11.21,0,0,0,1-4.3q0-2-.76-2.3a32.2,32.2,0,0,1,3.78-.51,0.66,0.66,0,0,1,.68.46,3.24,3.24,0,0,1,.14,1,21.24,21.24,0,0,1-1.51,7.35l1.08-1.73a28.58,28.58,0,0,1,2.84-4.05q0.89-.92,1.92-1.89a4.5,4.5,0,0,1,3-1.51,3,3,0,0,1,.81.11Q685.37,149.86,685.37,153.38Zm-2.6-.54a3.64,3.64,0,0,0-.35-1.59,1.16,1.16,0,0,0-1.11-.73q-1.89,0-4.41,3.51a126.56,126.56,0,0,0-7.22,12.27,2.63,2.63,0,0,0,1.95.7q1.24,0,3.51-1.89a25.51,25.51,0,0,0,6.06-7.51A10.82,10.82,0,0,0,682.78,152.84Z" transform="translate(-476.32 -126.28)"/><path class="c8039feb-e495-4da1-b6e6-15239e8070f4" d="M675,199.05a6.75,6.75,0,0,1-4.2-1.14,3.38,3.38,0,0,1-1.48-2.75,9,9,0,0,1,.93-3.64,11.52,11.52,0,0,1,5.8-5.06,45.26,45.26,0,0,1,8.34-2.75q5.19-1.27,6.67-1.7,2.22-3.89,5.31-13.9a48.37,48.37,0,0,1-6,8.83,6.86,6.86,0,0,1-4.88,2.53q-3.33,0-3.89-2.78a2.06,2.06,0,0,1-.12-1.3c0.08-.58.13-1,0.16-1.24a4.38,4.38,0,0,1,.4-1.2q0.37-.83.49-1.2a24.79,24.79,0,0,1,1.17-2.22q-1,0-.56-1l1.11-2.16q2.1-4,3.46-6.79a2.4,2.4,0,0,1,2.41-1.3h3.77a7.29,7.29,0,0,1-.62.49,5.11,5.11,0,0,0-1.67,1.73q-2.22,3.83-5.56,10.93a11.7,11.7,0,0,0-1.36,4.26,3,3,0,0,0,.46,1.91,1.56,1.56,0,0,0,1.27.56q1.17,0,3.27-2.47,4.38-5.13,9.7-16.12a2.48,2.48,0,0,1,2.41-1.3h3.33a8.08,8.08,0,0,0-2.53,2.81,36.48,36.48,0,0,0-2,4.6q-1.08,2.9-2.72,7.72t-2.5,7.23a16.07,16.07,0,0,0,8.89-6.11,64.8,64.8,0,0,0,3.89-6.79c0.29-.58.55-0.8,0.77-0.68a0.55,0.55,0,0,1,.34.49,11.65,11.65,0,0,1-1,2.38q-1,2.07-2.07,3.83a23.5,23.5,0,0,1-2.72,3.61,13.52,13.52,0,0,1-3.71,2.93,44.43,44.43,0,0,1-5.44,2.32q-4.75,8.65-9.57,12.72A15.07,15.07,0,0,1,675,199.05Zm-3.58-6.11a5.64,5.64,0,0,0-.68,2.5,2,2,0,0,0,.86,1.76,3.64,3.64,0,0,0,2.16.62q3.58,0,7.66-3.67a52.41,52.41,0,0,0,7.16-7.87l1.36-2.29a112.55,112.55,0,0,0-12.85,3.83A11.07,11.07,0,0,0,671.41,192.94Z" transform="translate(-476.32 -126.28)"/><path class="c8039feb-e495-4da1-b6e6-15239e8070f4" d="M523.91,235.47a6.83,6.83,0,0,1-1.48-.16q-4-.74-4-7,0-10.12,10.2-34.48a98.86,98.86,0,0,0,5.84-17.94,26.6,26.6,0,0,0,.74-5.39,23.54,23.54,0,0,0-.17-3.17q-0.41-3.62-2.71-5a19.09,19.09,0,0,0-9.22-2.22,27.78,27.78,0,0,0-11.27,2.63,61.67,61.67,0,0,0-11.15,6.42,50.76,50.76,0,0,0-9.5,9,37.86,37.86,0,0,0-6.38,10.94,30.33,30.33,0,0,0-2.1,10.33,19.29,19.29,0,0,0,.33,3.62q1.32,5.68,4.94,8.48a13.58,13.58,0,0,0,8.56,2.8q6.91,0,13-6.09t6-12.92q0-3.7-1.48-5.35a4.18,4.18,0,0,0-3-1.65,11.2,11.2,0,0,0-3.13.45c-1,.3-1.56.28-1.56-0.08s0.63-.82,1.89-1.4a9.41,9.41,0,0,1,3.95-.86,6.38,6.38,0,0,1,3.79,1.23q3.21,2.47,3.21,7.49a16.69,16.69,0,0,1-3.83,10.08,29.61,29.61,0,0,1-9.42,8.15,22.8,22.8,0,0,1-11.07,3.08,15.37,15.37,0,0,1-10.16-4,19.36,19.36,0,0,1-6.25-10.74,20.54,20.54,0,0,1-.41-4.2,29.36,29.36,0,0,1,2.55-11.27A38.76,38.76,0,0,1,488,174.94a50.7,50.7,0,0,1,10.41-8.72,64.08,64.08,0,0,1,11.85-5.8A33.09,33.09,0,0,1,522,158a28,28,0,0,1,10,1.73q8,3.46,8,14.65,0,8.23-5.92,20.41a129.26,129.26,0,0,0-6.58,16.29Q523.26,224,523.26,229q0,3.79,2.55,3.79,5.1,0,17.86-13.25a73.51,73.51,0,0,0,14.07-20.41,31.13,31.13,0,0,0,3.29-13,13.64,13.64,0,0,0-.49-4.4q-0.5-1.28-.66-1.65a1.52,1.52,0,0,0-.66-0.66,1.81,1.81,0,0,0-.66-0.29,22.08,22.08,0,0,0-2.39-.53,1.53,1.53,0,0,1-1.44-1.11,0.83,0.83,0,0,1,.86-1.07l1.56,0.16a11.9,11.9,0,0,1,6.58,5.35,10.21,10.21,0,0,1,1.56,5.72,24.67,24.67,0,0,1-1.56,7.86,72,72,0,0,1-11.69,19.79,73.83,73.83,0,0,1-15.59,14.94Q528.77,235.47,523.91,235.47Z" transform="translate(-476.32 -126.28)"/><path class="c8039feb-e495-4da1-b6e6-15239e8070f4" d="M575,216.25a31,31,0,0,0-2.91,7,19.49,19.49,0,0,0-.48,3.76q0,1.44,1.11,1.44,1.4,0,3.47-2.58a52.48,52.48,0,0,0,6-9.81,1.11,1.11,0,0,1,.66-0.74c0.39-.15.59,0,0.59,0.44a2.33,2.33,0,0,1-.22.89q-6.79,13.72-11.44,13.73a4,4,0,0,1-3.47-2.06,5.72,5.72,0,0,1-.66-3,17.28,17.28,0,0,1,.74-4.5q-5.91,9.52-10.19,9.52a3.42,3.42,0,0,1-2.14-.74q-2.21-1.55-2.21-5.31,0-7.23,6.27-14.69a16.3,16.3,0,0,1,8.71-5.39,10.49,10.49,0,0,1,2.66-.37,7.84,7.84,0,0,1,5.76,2.36,1.44,1.44,0,0,1,.44,1.55,1,1,0,0,1-1.25.59,3.4,3.4,0,0,0-3.54-2.66q-3.17,0-7.82,5a40.37,40.37,0,0,0-4.95,6.94q-2.88,4.8-2.88,7.68t1.84,2.88q4.43,0,11.59-13.58a17,17,0,0,1,2.36-3.73,3.24,3.24,0,0,1,2.44-1,12.22,12.22,0,0,1,1.51.22,4.68,4.68,0,0,0,1.81.07A28.24,28.24,0,0,0,575,216.25Z" transform="translate(-476.32 -126.28)"/><path class="c8039feb-e495-4da1-b6e6-15239e8070f4" d="M587.06,209.31q-0.8,2.33-1.34,4.46a17.12,17.12,0,0,0-.54,4.26,8.18,8.18,0,0,0,1,4,3.34,3.34,0,0,0,3.17,1.83q3.57,0,6.93-4.8a101.8,101.8,0,0,0,7.13-12.23q0.79-1.38,1.49-1.09a0.78,0.78,0,0,1,.2,1q-0.3.65-1.24,2.77t-1.39,3l-1.58,3a21.09,21.09,0,0,1-2,3.17q-0.84,1-2.28,2.67a12.59,12.59,0,0,1-2.72,2.43,12.4,12.4,0,0,1-6.54,2.18,7.48,7.48,0,0,1-4.75-1.34,5.24,5.24,0,0,1-2-2.87,12.46,12.46,0,0,1-.35-2.72q0-1.19.1-3.07a29.33,29.33,0,0,1,1.24-6.14q0.94-3,1-3.37a138.29,138.29,0,0,1,6.49-17.93,135.7,135.7,0,0,1,7.13-14.61,42.14,42.14,0,0,1,4.61-6.69q3.37-3.56,6.64-3.57,2.28,0,3.07,3.27a9.36,9.36,0,0,1,.1,1.49,21.45,21.45,0,0,1-2.38,8.52q-8.52,18.92-20.31,29.72Q587.85,207,587.06,209.31Zm11.69-18.87A96.09,96.09,0,0,0,606,177.12q2.33-5.5,2.33-7.48t-0.69-2q-1,0-3.76,3.91t-7.48,14.06q-4.71,10.15-7.68,17.78A78.29,78.29,0,0,0,598.75,190.44Z" transform="translate(-476.32 -126.28)"/><path class="c8039feb-e495-4da1-b6e6-15239e8070f4" d="M601.58,213.94a15.52,15.52,0,0,0-1.1,6,5.64,5.64,0,0,0,1,3.49,3.29,3.29,0,0,0,2.79,1.29q7.14,0,12.94-13.42,0.55-1.25,1.33-1.1a0.37,0.37,0,0,1,.31.39,48.39,48.39,0,0,1-5.33,10.28q-4,5.49-9.88,5.49a7.54,7.54,0,0,1-5.33-2,7.22,7.22,0,0,1-2.2-5.57,19.16,19.16,0,0,1,1.69-7.49,28.66,28.66,0,0,1,4.59-7.37,17.61,17.61,0,0,1,6.67-5,8.67,8.67,0,0,1,3.45-.78,5.41,5.41,0,0,1,3.06.94,3.14,3.14,0,0,1,1.33,2.43q0,4.71-5.65,9a16.8,16.8,0,0,1-4.86,2.39A16.46,16.46,0,0,1,601.58,213.94Zm13.18-12.55q0-1.57-1.25-1.57-2.2,0-6.67,5.41a40.28,40.28,0,0,0-4.71,7.37,12.42,12.42,0,0,0,3.88-.94,14.92,14.92,0,0,0,4.43-2.51Q614.76,205.46,614.76,201.38Z" transform="translate(-476.32 -126.28)"/><path class="c8039feb-e495-4da1-b6e6-15239e8070f4" d="M632.11,209q-7.62,13.38-7.62,17.46c0,1.07.39,1.61,1.18,1.61q3.16,0,8.48-10.71,0.37-.87.74-0.68a0.55,0.55,0,0,1,.37.5,1.57,1.57,0,0,1-.25.74q-3.28,6.63-5.54,9.13T625,229.53a3.89,3.89,0,0,1-3.44-1.73,3.53,3.53,0,0,1-.62-2.2,11.68,11.68,0,0,1,.62-3.37,33.42,33.42,0,0,1,3.41-6.44,3.78,3.78,0,0,0,.68-1.77c0-.43-0.35-0.65-1.05-0.65s-2,.93-4,2.79q-4.46,4.09-8.61,12.26a1.63,1.63,0,0,1-.84.77,8.05,8.05,0,0,1-1.83.22,4.6,4.6,0,0,0-1.8.31q1-2,3.9-8.11,5.2-10.83,6.81-12.38a2.76,2.76,0,0,1,2-.74,10.46,10.46,0,0,1,1.27.19,3.92,3.92,0,0,0,1.52.06q-2.29,1.24-7.49,11.64a50.26,50.26,0,0,1,5.29-5.73,30.37,30.37,0,0,1,5.73-4q3.34-1.83,4.89-1.83A1.83,1.83,0,0,1,632.11,209Z" transform="translate(-476.32 -126.28)"/><path class="c8039feb-e495-4da1-b6e6-15239e8070f4" d="M630.32,231q0-7,6.74-23.41h-4.38a0.54,0.54,0,0,1-.55-0.46,1.33,1.33,0,0,1,.08-0.93,0.68,0.68,0,0,1,.63-0.46h5.05q3-6.65,5.64-11.12t4.8-6a6.89,6.89,0,0,1,3.16-1.56,4.11,4.11,0,0,1,1.39.17q1.93,0.93,1.94,3.83a17.23,17.23,0,0,1-1.94,7q-1.94,4.13-3.79,7.66h4a0.54,0.54,0,0,1,.55.46,1.33,1.33,0,0,1-.08.93,0.68,0.68,0,0,1-.63.46h-4.88a61.19,61.19,0,0,1-11.2,13.9L635,230.09a9.56,9.56,0,0,0-.25,2.15,4.51,4.51,0,0,0,.59,2.15,2,2,0,0,0,1.85,1.09,6.58,6.58,0,0,0,3.2-1q4-3,8.93-12.72a1.59,1.59,0,0,1,.8-0.93q0.46-.17.55,0.21a2.38,2.38,0,0,1-.25,1.22,78.71,78.71,0,0,1-4.38,8.25q-4.55,7.33-9.69,7.33A5.44,5.44,0,0,1,632,235.9,7.18,7.18,0,0,1,630.32,231Zm15.83-23.41h-4q-1,2.36-4.55,11.2A64.41,64.41,0,0,0,646.15,207.61Zm1.09-1.85q5.56-9.94,5.56-13.81,0-1.68-.59-1.68-0.93,0-2.82,2.69T643,205.75h4.21Z" transform="translate(-476.32 -126.28)"/><path class="c8039feb-e495-4da1-b6e6-15239e8070f4" d="M652.56,230a3.82,3.82,0,0,0,2.49-1.18q2.3-2.3,5.84-9.39,0.43-.93.87-0.56a0.56,0.56,0,0,1,.12.4,5,5,0,0,1-.5,1.37l-0.9,2q-0.41.87-1.55,2.83a20,20,0,0,1-2.08,3q-2.55,2.92-4.82,2.92a3.76,3.76,0,0,1-3.26-1.37,5.06,5.06,0,0,1-1-3,9.81,9.81,0,0,1,.81-3.67l4-10.13a3.22,3.22,0,0,0,.13-1,3,3,0,0,0-.75-1.62l3.42-.06q1.43,0,1.68.53a2,2,0,0,1-.37,1.65l-5,11.63a9.74,9.74,0,0,0-1.06,3.92A1.65,1.65,0,0,0,652.56,230Zm6.09-22.81a2.9,2.9,0,0,1-1.93.75,2.07,2.07,0,0,1-1.68-.75,2.28,2.28,0,0,1-.5-1.8,3,3,0,0,1,1.06-1.8,2.89,2.89,0,0,1,1.93-.75,2.17,2.17,0,0,1,1.71.75,2.06,2.06,0,0,1,.47,1.8A3,3,0,0,1,658.65,207.22Z" transform="translate(-476.32 -126.28)"/><path class="c8039feb-e495-4da1-b6e6-15239e8070f4" d="M678.78,217.25q-9.38,16.48-9.38,21.51,0,2,1.45,2,3.89,0,10.45-13.2,0.46-1.07.92-.84a0.69,0.69,0,0,1,.46.61,1.94,1.94,0,0,1-.31.92q-4,8.17-6.83,11.25T670,242.57a4.79,4.79,0,0,1-4.23-2.14,4.32,4.32,0,0,1-.76-2.71,14.33,14.33,0,0,1,.76-4.16,41.12,41.12,0,0,1,4.2-7.93,4.63,4.63,0,0,0,.84-2.18c0-.53-0.43-0.8-1.3-0.8s-2.52,1.14-5,3.43q-5.49,5-10.6,15.11a2,2,0,0,1-1,1,10.12,10.12,0,0,1-2.25.27,5.67,5.67,0,0,0-2.21.38q1.22-2.44,4.81-10,6.41-13.35,8.39-15.26a3.41,3.41,0,0,1,2.52-.92,12.92,12.92,0,0,1,1.56.23,4.82,4.82,0,0,0,1.87.08q-2.82,1.53-9.23,14.34a62,62,0,0,1,6.52-7.06,37.38,37.38,0,0,1,7.06-4.88q4.12-2.25,6-2.25A2.24,2.24,0,0,1,678.78,217.25Z" transform="translate(-476.32 -126.28)"/><path class="c8039feb-e495-4da1-b6e6-15239e8070f4" d="M687.54,223.85a16.56,16.56,0,0,0-1.17,6.37,6,6,0,0,0,1,3.73,3.5,3.5,0,0,0,3,1.38q7.62,0,13.83-14.33,0.58-1.34,1.42-1.17a0.4,0.4,0,0,1,.33.42,35,35,0,0,1-1.88,4.4,35.52,35.52,0,0,1-3.81,6.58q-4.27,5.87-10.56,5.87a8.07,8.07,0,0,1-5.7-2.18,7.72,7.72,0,0,1-2.35-5.95,20.46,20.46,0,0,1,1.8-8,30.66,30.66,0,0,1,4.9-7.88,18.84,18.84,0,0,1,7.12-5.32,9.28,9.28,0,0,1,3.69-.84,5.78,5.78,0,0,1,3.27,1,3.36,3.36,0,0,1,1.42,2.6q0,5-6,9.64a18,18,0,0,1-5.2,2.56A17.6,17.6,0,0,1,687.54,223.85Zm14.08-13.41q0-1.68-1.34-1.68-2.35,0-7.12,5.78a43,43,0,0,0-5,7.88,13.26,13.26,0,0,0,4.15-1,15.9,15.9,0,0,0,4.73-2.68Q701.61,214.8,701.62,210.45Z" transform="translate(-476.32 -126.28)"/><path class="c8039feb-e495-4da1-b6e6-15239e8070f4" d="M718.33,203.48A7.5,7.5,0,0,1,716,209.1a13.8,13.8,0,0,1-5.39,3.25,1.23,1.23,0,0,1-.54.15c-0.15,0-.23-0.13-0.23-0.38a0.74,0.74,0,0,1,.61-0.61,9.23,9.23,0,0,0,3.9-2.49,7.27,7.27,0,0,0,1.91-4.17,3.55,3.55,0,0,1-2.22.77,2.47,2.47,0,0,1-2-.92,2.6,2.6,0,0,1-.54-2.22,3.31,3.31,0,0,1,1.26-2.22,3.85,3.85,0,0,1,2.52-.92,2.52,2.52,0,0,1,2.22,1.22A5.18,5.18,0,0,1,718.33,203.48Z" transform="translate(-476.32 -126.28)"/><path class="c8039feb-e495-4da1-b6e6-15239e8070f4" d="M728.34,233.41a11.73,11.73,0,0,0,1.53.17q3.4,0,6.72-4,1.79-2.21,6.38-11.14a0.6,0.6,0,0,1,.59-0.43,0.57,0.57,0,0,1,.76.6,3.86,3.86,0,0,1-.38,1q-0.38.81-.72,1.62c-0.23.54-.59,1.32-1.1,2.34s-0.95,1.84-1.32,2.46-0.84,1.39-1.4,2.29a10,10,0,0,1-1.7,2.13l-1.79,1.87a8.05,8.05,0,0,1-3.4,2,10.3,10.3,0,0,1-6.12.17,8.94,8.94,0,0,1-3.48.85q-6,0-7.31-4.76a12.09,12.09,0,0,1-.25-2.68,5,5,0,0,1,1.06-3,3.2,3.2,0,0,1,2.25-1.53q4.34-8.25,7.4-14.88,3.4-7.22,7.91-7.23a5.34,5.34,0,0,1,2.34.55c0.77,0.37,1,.78.85,1.23s-0.61.54-1.23,0.25a4,4,0,0,0-1.62-.43,2.63,2.63,0,0,0-1.19.26q-2.89,1.36-2.89,5.87a9.68,9.68,0,0,0,.68,3.91q0.68,1.53,1.53,3.32a19,19,0,0,1,2,7.23,10,10,0,0,1-1.79,5.53A15.79,15.79,0,0,1,728.34,233.41Zm-9.27-2.89a7.7,7.7,0,0,0,.09,1.11,3,3,0,0,0,3.15,2.29,3.8,3.8,0,0,0,1.7-.34q-3.15-2-3.4-6.38A4.64,4.64,0,0,0,719.07,230.52Zm6.38,2.29q3.74-2.89,3.74-9.35a59.75,59.75,0,0,0-.6-7.23A59.33,59.33,0,0,1,728,210a18.33,18.33,0,0,1,.08-2.21q-6.46,12.92-8,15.73,1.79,0,1.79,2.55Q721.88,231.12,725.45,232.81Z" transform="translate(-476.32 -126.28)"/><path class="c8039feb-e495-4da1-b6e6-15239e8070f4" d="M578.8,278.53a20.15,20.15,0,0,1-13,4.72q-8.12,0-10-4.53a6.49,6.49,0,0,1-.44-2.49,4.79,4.79,0,0,1,1.45-3.05,7.93,7.93,0,0,1,6.29-2.58,16.12,16.12,0,0,1,5.44,1,89,89,0,0,1,9.72,4.69,42.08,42.08,0,0,0,6.29-8.05A109.09,109.09,0,0,0,590,258.5q2.3-4.68,5.6-10.22a59.3,59.3,0,0,1,6.58-9.19,28.7,28.7,0,0,0-15-4.21,33.38,33.38,0,0,0-6.67.69q-9.75,2.08-14.85,8.49-3.15,3.9-3.15,7.42a6,6,0,0,0,4.59,6.23,11.15,11.15,0,0,0,2.83.44,10.82,10.82,0,0,0,2.67-.38,6.69,6.69,0,0,0,2.92-1.76q2.77-2.77,3-5.16c0-.38.28-0.51,0.72-0.41a0.74,0.74,0,0,1,.54,1,9.12,9.12,0,0,1-4.84,7,10.81,10.81,0,0,1-5.16,1.38l-3.27-.56a9.44,9.44,0,0,1-6.29-6.1,9.72,9.72,0,0,1-.63-3.4,11.28,11.28,0,0,1,2.58-6.86q5.53-7.42,19.63-9.5a40.41,40.41,0,0,1,5.47-.38A35.42,35.42,0,0,1,604,237.14a27,27,0,0,1,4.53-4.31,6.44,6.44,0,0,1,3.33-1.48,0.84,0.84,0,0,1,.82.28,0.37,0.37,0,0,1,0,.44,0.55,0.55,0,0,1-.41.16q-1.07,0-2.77,2.26a35.74,35.74,0,0,0-2.77,4.21,29.58,29.58,0,0,1,10.25,11.45,26.68,26.68,0,0,1,2.83,12.21q0,8.18-3.9,13a17.41,17.41,0,0,1-7.8,5.6,32.08,32.08,0,0,1-10.82,2Q586.41,282.94,578.8,278.53Zm-2.14-1q-7.36-3.52-9.31-4.21a11.35,11.35,0,0,0-3.81-.69,3.58,3.58,0,0,0-3,1.38,4.18,4.18,0,0,0-1.1,2.49,4.62,4.62,0,0,0,.5,2.11q1.32,2.71,5.41,2.71A18.86,18.86,0,0,0,576.66,277.53Zm3.65-.13a28.64,28.64,0,0,0,14.91,3.78q9.94,0,15.85-5.66,4.72-4.59,4.72-12.71a26.48,26.48,0,0,0-2.26-10.88,27.55,27.55,0,0,0-8.37-10.82q-1.83,2.83-7,11.42t-8.78,13.94a66.26,66.26,0,0,1-5.66,7.58A44.21,44.21,0,0,1,580.31,277.4Z" transform="translate(-476.32 -126.28)"/><path class="c8039feb-e495-4da1-b6e6-15239e8070f4" d="M633.2,277.17a20.9,20.9,0,0,0-2,4.73,13.07,13.07,0,0,0-.32,2.54q0,1,.75,1,0.94,0,2.34-1.74a35.41,35.41,0,0,0,4-6.62,0.75,0.75,0,0,1,.45-0.5q0.4-.15.4,0.3a1.55,1.55,0,0,1-.15.6q-4.58,9.26-7.72,9.26a2.69,2.69,0,0,1-2.34-1.39,3.85,3.85,0,0,1-.45-2,11.7,11.7,0,0,1,.5-3q-4,6.42-6.87,6.42a2.3,2.3,0,0,1-1.44-.5,4.06,4.06,0,0,1-1.49-3.58q0-4.88,4.23-9.91a11,11,0,0,1,5.87-3.63,7,7,0,0,1,1.79-.25,5.28,5.28,0,0,1,3.88,1.59,1,1,0,0,1,.3,1,0.69,0.69,0,0,1-.85.4,2.3,2.3,0,0,0-2.39-1.79q-2.14,0-5.28,3.38a27.13,27.13,0,0,0-3.33,4.68,11.07,11.07,0,0,0-1.94,5.18q0,1.94,1.25,1.94,3,0,7.82-9.16a11.46,11.46,0,0,1,1.59-2.52,2.18,2.18,0,0,1,1.64-.67,8.75,8.75,0,0,1,1,.15,3.15,3.15,0,0,0,1.22.05A19.11,19.11,0,0,0,633.2,277.17Z" transform="translate(-476.32 -126.28)"/><path class="c8039feb-e495-4da1-b6e6-15239e8070f4" d="M629.24,309.35a7.41,7.41,0,0,1-4.6-1.25,3.71,3.71,0,0,1-1.62-3,9.83,9.83,0,0,1,1-4,12.63,12.63,0,0,1,6.37-5.55,49.44,49.44,0,0,1,9.14-3q5.69-1.39,7.31-1.86,2.44-4.27,5.82-15.23a53.08,53.08,0,0,1-6.57,9.68q-2.64,2.78-5.35,2.78-3.65,0-4.26-3a2.26,2.26,0,0,1-.14-1.42c0.09-.63.15-1.08,0.17-1.35a4.82,4.82,0,0,1,.44-1.32c0.27-.61.45-1,0.54-1.32,0.5-1,.92-1.85,1.29-2.44q-1.08,0-.61-1.08l1.22-2.37q2.3-4.4,3.79-7.45a2.64,2.64,0,0,1,2.64-1.42H650a8.64,8.64,0,0,1-.68.54,5.61,5.61,0,0,0-1.83,1.9q-2.44,4.2-6.09,12a12.79,12.79,0,0,0-1.49,4.67,3.33,3.33,0,0,0,.51,2.1,1.71,1.71,0,0,0,1.39.61q1.28,0,3.59-2.71,4.81-5.62,10.63-17.67a2.72,2.72,0,0,1,2.64-1.42h3.66a8.84,8.84,0,0,0-2.78,3.08,39.87,39.87,0,0,0-2.2,5q-1.18,3.18-3,8.46t-2.74,7.92a17.63,17.63,0,0,0,9.75-6.7,70.82,70.82,0,0,0,4.27-7.45q0.47-.95.85-0.74a0.61,0.61,0,0,1,.37.54,12.68,12.68,0,0,1-1.12,2.61q-1.12,2.27-2.27,4.2a25.66,25.66,0,0,1-3,4,14.75,14.75,0,0,1-4.06,3.21,48.6,48.6,0,0,1-6,2.54q-5.21,9.48-10.5,13.95A16.51,16.51,0,0,1,629.24,309.35Zm-3.93-6.7a6.21,6.21,0,0,0-.74,2.74,2.24,2.24,0,0,0,.95,1.93,4,4,0,0,0,2.37.68q3.93,0,8.39-4a57.52,57.52,0,0,0,7.85-8.63l1.49-2.5q-11.17,2.91-14.08,4.2A12.13,12.13,0,0,0,625.31,302.64Z" transform="translate(-476.32 -126.28)"/></svg>