<svg xmlns="http://www.w3.org/2000/svg" width="76.85" height="91.188" viewBox="0 0 76.85 91.188">
  <defs>
    <style>
      .cls-1 {
        fill: #fff;
        fill-rule: evenodd;
      }
    </style>
  </defs>
  <path id="m" class="cls-1" d="M1188.39,51.894l-54.58,9.858V124.54c-1.46-1.384-3.88-1.791-6.71-1.791-3.24,0-7.12,1.629-10.2,4.152-3.07,2.442-5.34,5.78-5.34,9.118a6.379,6.379,0,0,0,2.43,5.129,9.145,9.145,0,0,0,5.82,1.954,17.964,17.964,0,0,0,10.68-3.908c3.16-2.442,5.34-5.78,5.34-9.443V69.09l50.56-9.131v55.084c-1.45-1.384-3.88-1.79-6.71-1.79-3.24,0-7.12,1.628-10.2,4.152-3.07,2.442-5.34,5.779-5.34,9.117a6.379,6.379,0,0,0,2.43,5.129,9.153,9.153,0,0,0,5.83,1.954,17.981,17.981,0,0,0,10.68-3.908c3.15-2.442,5.33-5.78,5.33-9.443Z" transform="translate(-1111.56 -51.906)"/>
</svg>
